<svg width="37" height="37" viewBox="0 0 37 37" fill="none" xmlns="http://www.w3.org/2000/svg">
<g clip-path="url(#clip0_376_100)">
<path d="M18.5 0.0012207C8.28492 0.0012207 0.0015422 8.27997 5.36572e-07 18.4966C-0.000804789 21.8409 0.904923 25.1228 2.62083 27.9933C2.64309 28.0162 2.67052 28.0335 2.70083 28.0437C2.73113 28.0539 2.76344 28.0567 2.79504 28.0518C2.84129 28.0518 2.86904 27.9439 2.86904 27.8823C2.85659 27.8144 2.83959 27.7474 2.81817 27.6818C2.5384 26.5154 2.32072 25.3348 2.16604 24.1453C1.98556 22.1344 2.20992 20.1078 2.82588 18.1852C4.52325 12.9497 7.96425 9.39768 13.0995 7.4891C14.7818 6.89101 16.5528 6.5809 18.3381 6.57181C18.5034 6.5556 18.6703 6.57381 18.8282 6.62529C18.9861 6.67676 19.1316 6.76039 19.2556 6.87091C19.3796 6.98142 19.4793 7.11641 19.5485 7.26739C19.6178 7.41836 19.655 7.58204 19.6578 7.7481C19.6578 8.44185 19.129 8.88431 18.3474 8.92901C17.5171 8.96236 16.6897 9.04732 15.8699 9.18339C12.994 9.68769 10.3612 11.1167 8.37125 13.2534C5.15996 16.6759 3.93125 20.7459 4.67125 25.3663C5.11783 28.1614 6.43724 30.7435 8.44063 32.7431C9.71111 34.0714 11.2344 35.1321 12.9209 35.8628C14.6075 36.5935 16.4231 36.9796 18.261 36.9981H18.5C21.5167 37.0021 24.4881 36.2652 27.1534 34.8521H18.5308C17.8029 34.8465 17.0768 34.7794 16.3602 34.6517C13.2935 34.0979 10.567 32.3619 8.76768 29.8176C6.9684 27.2732 6.2403 24.124 6.74017 21.0481C7.16234 18.4068 8.46195 15.9847 10.4293 14.1725C12.3968 12.3604 14.9172 11.2638 17.5842 11.0596C18.6986 10.9708 19.82 11.0419 20.9142 11.2708C21.0661 11.2955 21.2115 11.3503 21.3418 11.432C21.4722 11.5136 21.585 11.6204 21.6736 11.7462C21.7622 11.872 21.8248 12.0141 21.8577 12.1644C21.8907 12.3147 21.8933 12.47 21.8655 12.6213C21.8323 12.7811 21.7672 12.9325 21.6741 13.0665C21.5809 13.2005 21.4616 13.3143 21.3234 13.401C21.1851 13.4877 21.0308 13.5455 20.8696 13.571C20.7084 13.5965 20.5437 13.5892 20.3855 13.5494C19.9778 13.4625 19.5647 13.4033 19.149 13.3721C17.6188 13.2747 16.0873 13.5409 14.6798 14.1491C12.7989 14.9607 11.2285 16.3552 10.2001 18.1269C9.17174 19.8986 8.73977 21.9538 8.96788 23.9896C9.23253 26.3263 10.3467 28.4844 12.0984 30.0534C13.8502 31.6224 16.1175 32.4929 18.4692 32.4996H29.2454C30.2937 32.4996 30.5404 32.5211 30.9998 32.1296C31.5898 31.5848 32.1432 31.0062 32.6602 30.3936H18.2765C17.1607 30.3992 16.0612 30.1263 15.0775 29.5997C14.1744 29.1555 13.3703 28.5335 12.7134 27.7709C12.0566 27.0083 11.5606 26.1209 11.2552 25.1619C10.9498 24.2029 10.8413 23.1921 10.9361 22.1901C11.031 21.1881 11.3273 20.2156 11.8072 19.331C12.2871 18.4463 12.9408 17.6677 13.7291 17.042C14.5173 16.4162 15.4239 15.956 16.3943 15.6892C17.3647 15.4224 18.3791 15.3544 19.3765 15.4892C20.3738 15.6241 21.3337 15.959 22.1985 16.4739C22.3395 16.5441 22.4647 16.6423 22.5664 16.7625C22.6681 16.8828 22.7442 17.0226 22.7899 17.1733C22.8357 17.324 22.8502 17.4825 22.8325 17.639C22.8148 17.7955 22.7654 17.9467 22.6872 18.0834C22.6084 18.2206 22.503 18.3406 22.377 18.4362C22.2511 18.5318 22.1072 18.6012 21.9539 18.6402C21.8006 18.6791 21.6411 18.6869 21.4847 18.663C21.3284 18.6392 21.1784 18.5841 21.0437 18.5012C20.4577 18.1667 19.8114 17.951 19.1419 17.8662C18.4724 17.7815 17.7928 17.8295 17.1419 18.0074C16.4909 18.1854 15.8814 18.4898 15.3481 18.9033C14.8148 19.3169 14.3682 19.8314 14.0338 20.4175C13.453 21.4348 13.2376 22.6202 13.4233 23.7768C13.604 24.9841 14.214 26.0858 15.1415 26.8795C16.0689 27.6733 17.2515 28.106 18.4722 28.0981C23.6523 28.1505 28.8323 28.0981 34.0122 28.0981C34.1795 28.0829 34.3343 28.0033 34.4439 27.8761C39.6208 19.0686 36.6793 7.73268 27.8718 2.55422C25.031 0.883672 21.7956 0.00229187 18.5 0.0012207Z" fill="black"/>
</g>
<defs>
<clipPath id="clip0_376_100">
<rect width="37" height="37" fill="white"/>
</clipPath>
</defs>
</svg>
